<svg class="maturity-rating__icon--qzkzC" xmlns="http://www.w3.org/2000/svg" viewBox="0 0 64 64" data-t="rating-a16-svg" aria-labelledby="rating-a16-svg" aria-hidden="true" role="img"><title id="rating-a16-svg">Não recomendado para menores de 16 anos</title><path d="m62.37 4.31-.019-.035c-.363-1.252-1.451-2.322-2.74-2.685h-.035c-.345-.109-.762-.127-1.143-.127H5.604c-.326 0-.708.018-1.016.09h-.036c-1.67.345-3.012 1.96-3.084 3.647v22.186c0 10.195.018 20.734 0 31.11v.073c-.055.962.344 1.941 1.07 2.721.726.78 1.687 1.234 2.649 1.252h53.246c.29 0 .67-.018 1.016-.09 1.778-.418 3.174-2.177 3.084-3.919V6.977c-.018-.254 0-.507 0-.743.018-.69.036-1.36-.146-1.887l-.018-.036z" fill="#EC1D25"/><path d="M5.61 0c.327 0 .635.018.98.036h50.906l.943-.018c.544 0 1.07.036 1.597.2 1.76.49 3.247 1.923 3.737 3.682.326.98.2 2.05.217 3.084v51.501c.11 2.485-1.814 4.826-4.208 5.388-.436.109-.89.127-1.343.127-.381 0-.78-.018-1.161-.018H5.175c-2.83-.055-5.297-2.667-5.17-5.497.018-17.76 0-35.537 0-53.315C.077 2.794 1.909.617 4.232.127 4.685.018 5.157 0 5.61 0zM58.44 1.451H5.611c-.327 0-.708.018-1.016.09h-.037c-1.669.346-3.011 1.96-3.084 3.647v26.024c.004 8.99.016 18.194 0 27.273v.073c-.054.961.345 1.94 1.07 2.72.726.781 1.688 1.234 2.65 1.253h53.245c.29 0 .671-.019 1.016-.091 1.778-.417 3.175-2.177 3.084-3.919V6.966c-.018-.254 0-.508 0-.744.018-.69.036-1.36-.145-1.886l-.018-.037-.018-.036c-.363-1.252-1.452-2.322-2.74-2.685h-.036c-.345-.109-.762-.127-1.143-.127z" fill="#FFF"/><path d="M52.325 36.204c0-1.651-.11-2.722-.327-3.23-.218-.49-.617-.743-1.18-.743-.561 0-.96.29-1.197.852-.217.563-.344 1.597-.344 3.12v4.463c0 1.651.109 2.721.326 3.229.218.49.617.744 1.198.744.562 0 .943-.272 1.179-.816.218-.545.345-1.597.345-3.157v-4.462zm6.53-12.935v.345h-6.512v-.345c0-1.65-.11-2.72-.327-3.229-.217-.49-.617-.743-1.179-.743s-.962.29-1.197.852c-.218.562-.345 1.615-.345 3.12v6.513c.562-.744 1.216-1.306 1.923-1.67.707-.362 1.542-.543 2.467-.543 1.796 0 3.12.58 3.955 1.723.835 1.143 1.252 2.993 1.252 5.515v3.465c0 3.918-.599 6.62-1.778 8.108-1.18 1.488-3.265 2.232-6.259 2.232-3.011 0-5.098-.744-6.277-2.213C43.4 44.91 42.8 42.208 42.8 38.272V25.664c0-3.918.599-6.621 1.778-8.09 1.18-1.47 3.266-2.214 6.277-2.214 3.03 0 5.116.562 6.259 1.687 1.161 1.125 1.742 3.193 1.742 6.222zM32.115 15.886h5.46v32.181h-6.222V24.14a10.243 10.243 0 0 1-1.76 1.451c-.635.4-1.324.744-2.068 1.016v-5.769c1.107-.635 2.05-1.36 2.83-2.195.762-.834 1.36-1.741 1.76-2.757M15.86 16.213H9.547L5.12 48.303h8.835l.49-5.86h2.794l.49 5.86h8.853l-4.409-32.09H15.86zm0 7.42 1.487 13.17h-2.975l1.488-13.17z" fill="#FFF"/></svg>