<svg class="left-icon" xmlns="http://www.w3.org/2000/svg" viewBox="0 0 16 16" data-t="tiktok-svg" aria-labelledby="tiktok-svg" aria-hidden="true" role="img"><title id="tiktok-svg">TikTok</title><path d="M14.095 0H1.905C.855 0 0 .854 0 1.905v12.19C0 15.145.854 16 1.905 16h12.19c1.05 0 1.905-.854 1.905-1.905V1.905C16 .855 15.146 0 14.095 0m-1.521 6.98a2.854 2.854 0 0 1-2.651-1.277v4.395A3.248 3.248 0 1 1 6.674 6.85c.068 0 .134.006.201.01v1.6c-.067-.007-.132-.02-.2-.02a1.658 1.658 0 0 0 0 3.316c.915 0 1.724-.721 1.724-1.637l.016-7.465h1.531a2.853 2.853 0 0 0 2.63 2.547v1.78"/></svg>