<svg class="left-icon" xmlns="http://www.w3.org/2000/svg" viewBox="0 0 16 16" data-t="youtube-svg" aria-labelledby="youtube-svg" aria-hidden="true" role="img"><title id="youtube-svg">YouTube</title><path d="M15.666,4.124A2.01,2.01,0,0,0,14.251,2.7,47.511,47.511,0,0,0,8,2.364,47.511,47.511,0,0,0,1.749,2.7,2.01,2.01,0,0,0,.334,4.124,21.09,21.09,0,0,0,0,8a21.09,21.09,0,0,0,.334,3.876A2.01,2.01,0,0,0,1.749,13.3,47.509,47.509,0,0,0,8,13.636a47.509,47.509,0,0,0,6.251-.337,2.01,2.01,0,0,0,1.415-1.424A21.09,21.09,0,0,0,16,8,21.09,21.09,0,0,0,15.666,4.124Zm-9.3,6.255V5.621L10.545,8Z"/></svg>