<svg class="left-icon" xmlns="http://www.w3.org/2000/svg" viewBox="0 0 16 16" data-t="facebook-svg" aria-labelledby="facebook-svg" aria-hidden="true" role="img"><title id="facebook-svg">Facebook</title><path d="M15.1169,0 L0.8829,0 C0.3949,0 -0.0001,0.395 -0.0001,0.883 L-0.0001,15.117 C-0.0001,15.605 0.3949,16 0.8829,16 L8.5459,16 L8.5459,9.804 L6.4609,9.804 L6.4609,7.389 L8.5459,7.389 L8.5459,5.608 C8.5459,3.542 9.8079,2.417 11.6519,2.417 C12.5349,2.417 13.2939,2.482 13.5149,2.512 L13.5149,4.671 L12.2369,4.672 C11.2339,4.672 11.0399,5.148 11.0399,5.848 L11.0399,7.389 L13.4309,7.389 L13.1199,9.804 L11.0399,9.804 L11.0399,16 L15.1169,16 C15.6049,16 15.9999,15.605 15.9999,15.117 L15.9999,0.883 C15.9999,0.395 15.6049,0 15.1169,0"/></svg>