<svg xmlns="http://www.w3.org/2000/svg" viewBox="0 0 40.84 38.49"><defs><style>.cls-1{fill:#fff;}.cls-2{fill:none;stroke:#fff;stroke-miterlimit:10;}</style></defs><g id="Camada_2" data-name="Camada 2"><g id="Camada_1-2" data-name="Camada 1"><path class="cls-1" d="M22.18,38A21.85,21.85,0,0,1,11,35.14a20.48,20.48,0,0,1-3-2.21,3.81,3.81,0,0,1-.82.09l-.09-2.18a3.69,3.69,0,0,0,2.46-.91l.11-.11a3.53,3.53,0,0,0,.84-2l2.37.24a5.56,5.56,0,0,1-2.09,3.66,10.44,10.44,0,0,0,2.09,1.57,11,11,0,0,0,4.55,1.32A12.24,12.24,0,0,0,25,32.28a14.05,14.05,0,0,0,3.32-3.18,6.59,6.59,0,0,1,.91-5.65A6.26,6.26,0,0,1,34.52,21l-.12,2.49h-.21a3.74,3.74,0,0,0-3.46,3.69h0a3.9,3.9,0,0,0,5.93,2.92h0a3.72,3.72,0,0,0,1.4-2.33l2.17.26a6.08,6.08,0,0,1-.21.81L40,29a8.88,8.88,0,0,1-.83,1.86A10.59,10.59,0,0,1,37,33.36,23.64,23.64,0,0,1,22.18,38Z"/><path class="cls-1" d="M1.64,29.62a8.2,8.2,0,0,1-1-3.36A23.46,23.46,0,0,1,3.52,11.91,20.28,20.28,0,0,1,15.69,3.48a5.36,5.36,0,0,1,1-1.29l.06,0A5.42,5.42,0,0,1,18.4,1,5.75,5.75,0,0,1,19.51.62l.3,2.1a3.35,3.35,0,0,0-1.71.88.6.6,0,0,0-.11.12s0,0,0,0a3.47,3.47,0,0,0-.81,2.63L15,6.57a1.49,1.49,0,0,1,0-.21,8.74,8.74,0,0,0-2.66,1.11,9.45,9.45,0,0,0-2.73,2.66,12,12,0,0,0-2,7.22,13.6,13.6,0,0,0,.73,4.13h0a5.7,5.7,0,0,1,1.7.75,6,6,0,0,1,2.79,5.85l-2.37-.24A3.5,3.5,0,1,0,3.77,29a2.82,2.82,0,0,0,.21.38,3.77,3.77,0,0,0,1,.89,3.9,3.9,0,0,0,2.1.61L7.14,33a5.38,5.38,0,0,1-3.65-1.24l-.14-.11L3,31.39,2.66,31a5.47,5.47,0,0,1-.54-.65l-.33-.48,0,0-.06-.1A.91.91,0,0,1,1.64,29.62Z"/><path class="cls-1" d="M20.49,11.65A5.49,5.49,0,0,1,15,6.57l2.14-.2a3.15,3.15,0,0,0,.28,1.06A3.5,3.5,0,0,0,22.06,9.2a3.32,3.32,0,0,0,1.06-.74l.07-.08a3.5,3.5,0,0,0-2.7-5.73,3.08,3.08,0,0,0-.68.07l-.3-2.1A5.32,5.32,0,0,1,20.82.51,9.86,9.86,0,0,1,25,1.29c8,3.16,11.21,8.06,11.21,8.06A19.53,19.53,0,0,1,38.91,23h0a6.19,6.19,0,0,1,1.42,3.7A6.83,6.83,0,0,1,40.25,28l-2.17-.26c0-.13,0-.26,0-.4a3.78,3.78,0,0,0-3.72-3.89L34.52,21,35,21l.23,0h.07l.2,0a4.75,4.75,0,0,1,1,.24,7.1,7.1,0,0,0,.15-2.11,7.89,7.89,0,0,0-1.32-3.58,12.06,12.06,0,0,0-5.78-4.77,13.53,13.53,0,0,0-3.78-1,7.79,7.79,0,0,1-3,1.54,7.63,7.63,0,0,1-2.25.24Z"/><path class="cls-2" d="M40.25,28a6.83,6.83,0,0,0,.08-1.36A6.19,6.19,0,0,0,38.91,23h0A19.53,19.53,0,0,0,36.17,9.35S33,4.45,25,1.29A9.86,9.86,0,0,0,20.82.51a5.32,5.32,0,0,0-1.31.11A5.75,5.75,0,0,0,18.4,1a5.42,5.42,0,0,0-1.67,1.16l-.06,0a5.36,5.36,0,0,0-1,1.29A20.28,20.28,0,0,0,3.52,11.91,23.46,23.46,0,0,0,.64,26.26a8.2,8.2,0,0,0,1,3.36.91.91,0,0,0,.07.14l.06.1,0,0,.33.48a5.47,5.47,0,0,0,.54.65l.36.37.33.28.14.11A5.38,5.38,0,0,0,7.14,33,3.81,3.81,0,0,0,8,32.93a20.48,20.48,0,0,0,3,2.21A21.85,21.85,0,0,0,22.18,38,23.64,23.64,0,0,0,37,33.36a10.59,10.59,0,0,0,2.14-2.46A8.88,8.88,0,0,0,40,29l.06-.19A6.08,6.08,0,0,0,40.25,28Z"/><path class="cls-2" d="M17.16,6.37A3.47,3.47,0,0,1,18,3.74s0,0,0,0a.6.6,0,0,1,.11-.12,3.35,3.35,0,0,1,1.71-.88,3.08,3.08,0,0,1,.68-.07,3.5,3.5,0,0,1,2.7,5.73l-.07.08a3.32,3.32,0,0,1-1.06.74,3.5,3.5,0,0,1-4.62-1.77A3.15,3.15,0,0,1,17.16,6.37Z"/><path class="cls-2" d="M10.46,27.84a3.53,3.53,0,0,1-.84,2l-.11.11a3.69,3.69,0,0,1-2.46.91A3.9,3.9,0,0,1,5,30.23a3.77,3.77,0,0,1-1-.89A2.82,2.82,0,0,1,3.77,29a3.5,3.5,0,1,1,6.69-1.12Z"/><path class="cls-2" d="M34.52,21a6.26,6.26,0,0,0-5.25,2.45,6.59,6.59,0,0,0-.91,5.65A14.05,14.05,0,0,1,25,32.28a12.24,12.24,0,0,1-7.66,2.35,11,11,0,0,1-4.55-1.32,10.44,10.44,0,0,1-2.09-1.57,5.56,5.56,0,0,0,2.09-3.66A6,6,0,0,0,10,22.23a5.7,5.7,0,0,0-1.7-.75h0a13.6,13.6,0,0,1-.73-4.13,12,12,0,0,1,2-7.22,9.45,9.45,0,0,1,2.73-2.66A8.74,8.74,0,0,1,15,6.36a1.49,1.49,0,0,0,0,.21,5.49,5.49,0,0,0,5.47,5.08h0a7.63,7.63,0,0,0,2.25-.24,7.79,7.79,0,0,0,3-1.54,13.53,13.53,0,0,1,3.78,1,12.06,12.06,0,0,1,5.78,4.77,7.89,7.89,0,0,1,1.32,3.58,7.1,7.1,0,0,1-.15,2.11,4.75,4.75,0,0,0-1-.24l-.2,0h-.07L35,21Z"/><path class="cls-2" d="M38.08,27.78a3.72,3.72,0,0,1-1.4,2.33h0a3.9,3.9,0,0,1-5.93-2.92h0a3.74,3.74,0,0,1,3.46-3.69h.21a3.78,3.78,0,0,1,3.72,3.89C38.11,27.52,38.1,27.65,38.08,27.78Z"/><path class="cls-2" d="M20.76,16.43a4.31,4.31,0,1,0,4.3,4.3A4.3,4.3,0,0,0,20.76,16.43Z"/></g></g></svg>