<svg xmlns="http://www.w3.org/2000/svg" viewBox="0 0 40.35 37.99"><defs><style>.cls-1{fill:#fff;}.cls-2{fill:none;stroke:#fff;stroke-miterlimit:10;}</style></defs><g id="Camada_2" data-name="Camada 2"><g id="Camada_1-2" data-name="Camada 1"><path class="cls-1" d="M15.45,3.23a5.36,5.36,0,0,1,1-1.29,5.43,5.43,0,0,0-.91,1.28Z"/><path class="cls-1" d="M31.62,31.88a6.23,6.23,0,0,0,6.57-1,5.13,5.13,0,0,1-3.81,1.71A5.38,5.38,0,0,1,31.62,31.88Z"/><path class="cls-1" d="M1.55,29.64a8.35,8.35,0,0,0,1.23,1.5A6,6,0,0,1,1.55,29.64Z"/><path class="cls-1" d="M38.59,23.15a6.34,6.34,0,0,0-2.44-1.63c0-.13.07-.28.11-.45a4.94,4.94,0,0,1,1,.43,5.14,5.14,0,0,1,1.44,1.22h0C38.64,22.9,38.61,23,38.59,23.15Z"/><path class="cls-1" d="M36.44,29.86a3.7,3.7,0,0,0,1.44-2.73,3.7,3.7,0,1,0-7.39-.19A3.56,3.56,0,0,1,31,24.69a3.83,3.83,0,0,1,6.46,4.1A3.57,3.57,0,0,1,36.44,29.86Z"/><path class="cls-1" d="M9.38,29.57a3.06,3.06,0,0,0,.54-.65,3.77,3.77,0,0,0-1.25-5.17,3.76,3.76,0,0,0-5.21,1.07,3.67,3.67,0,0,0,.28,4.27,3.48,3.48,0,0,0,4.41,1.39,3.23,3.23,0,0,0,1.12-.8Zm2.38-4.52a5.53,5.53,0,0,1-1.36,6.34l0,0a6,6,0,0,1-.76.56,5.2,5.2,0,0,1-.92.47,5.74,5.74,0,0,1-1,.29,6.09,6.09,0,0,1-4.12-.91,4,4,0,0,1-.34-.23l-.14-.11a5.4,5.4,0,0,1-1.41-1.9,5.5,5.5,0,0,1,10.06-4.47Z"/><path class="cls-1" d="M10.5,31.49a5.63,5.63,0,0,1-2.36,1.1A4.18,4.18,0,0,0,9,32.31a5.62,5.62,0,0,0,1.44-.92A.94.94,0,0,0,10.5,31.49Z"/><path class="cls-1" d="M20.25,2.4a3.45,3.45,0,0,0-2.39,1A3.34,3.34,0,0,1,19,2.56a3.49,3.49,0,0,1,4,5.57,3.5,3.5,0,0,0-2.7-5.73Z"/><path class="cls-1" d="M25.75,5.9A5.5,5.5,0,0,0,20.25.4a5.4,5.4,0,0,0-1.51.21,7.81,7.81,0,0,1,1.35-.3,4.41,4.41,0,0,1,.49,0A5.5,5.5,0,0,1,24.2,9.73,5.48,5.48,0,0,0,25.75,5.9Z"/><path class="cls-1" d="M14.91,6a5.25,5.25,0,0,0,.46,2A5.51,5.51,0,0,0,24,9.93a5.42,5.42,0,0,1-3.73,1.47,5.5,5.5,0,0,1-5.49-5.29l.15,0Z"/><path class="cls-1" d="M15.12,4.23h0Z"/><path class="cls-1" d="M9.92,28.92a3.06,3.06,0,0,1-.54.65,3.5,3.5,0,1,0-5.85-.86,2.82,2.82,0,0,0,.21.38,3.67,3.67,0,0,1-.28-4.27,3.76,3.76,0,0,1,5.21-1.07A3.77,3.77,0,0,1,9.92,28.92Z"/><path class="cls-1" d="M36.23,23.63A3.75,3.75,0,0,0,31,24.69a3.56,3.56,0,0,0-.54,2.25h0a2.44,2.44,0,0,0,0,.27,3.71,3.71,0,0,0,3.88,3.41,3.64,3.64,0,0,0,2-.76h0a3.57,3.57,0,0,0,1.05-1.07A3.75,3.75,0,0,0,36.23,23.63Zm2,7.29a6.23,6.23,0,0,1-6.57,1,5.5,5.5,0,0,1,2.76-10.25,5.23,5.23,0,0,1,5.36,5.31,5.87,5.87,0,0,1-1.47,3.9l0,0Z"/><path class="cls-1" d="M4.71,30a3.82,3.82,0,0,0,4.56-.3,3.23,3.23,0,0,1-1.12.8,3.48,3.48,0,0,1-4.41-1.39A3.77,3.77,0,0,0,4.71,30Z"/><path class="cls-1" d="M34.38,30.63a3.71,3.71,0,0,1-3.88-3.41,2.44,2.44,0,0,1,0-.27,3.9,3.9,0,0,0,5.93,2.92A3.64,3.64,0,0,1,34.38,30.63Z"/><path class="cls-1" d="M15.42,3.42s0,0,0,0S15.43,3.41,15.42,3.42Z"/><path class="cls-1" d="M7.71,32.67l.25,0a.69.69,0,0,1-.24,0Z"/><path class="cls-1" d="M15.05,4.5a1.83,1.83,0,0,1,.06-.25A1.14,1.14,0,0,0,15.05,4.5Z"/><path class="cls-1" d="M15,4.59a1.42,1.42,0,0,0,0,.2A1.18,1.18,0,0,1,15,4.59Z"/><path class="cls-1" d="M8.14,32.59l-.1,0A.12.12,0,0,0,8.14,32.59Z"/><path class="cls-1" d="M14.9,5.81a.28.28,0,0,0,0,.09A.28.28,0,0,1,14.9,5.81Z"/><path class="cls-1" d="M14.9,5.68a1.69,1.69,0,0,1,0-.23A1.85,1.85,0,0,0,14.9,5.68Z"/><path class="cls-1" d="M3.28,11.66A20.28,20.28,0,0,1,15.45,3.23a5.37,5.37,0,0,0-.7,2.67,1.48,1.48,0,0,0,0,.21A8.74,8.74,0,0,0,12.1,7.22,9.45,9.45,0,0,0,9.37,9.88a12,12,0,0,0-2,7.22,13.6,13.6,0,0,0,.73,4.13A5.7,5.7,0,0,0,1.4,29.37,8.2,8.2,0,0,1,.4,26,23.46,23.46,0,0,1,3.28,11.66Z"/><path class="cls-1" d="M10.93,23a6.33,6.33,0,0,1,1.23,1.85l-.4.17A5.5,5.5,0,0,0,1.7,29.52a5.4,5.4,0,0,0,1.41,1.9l-.33-.28a8.35,8.35,0,0,1-1.23-1.5l0,0-.06-.1a.91.91,0,0,1-.07-.14,5.7,5.7,0,0,1,6.69-8.14h0a.61.61,0,0,0,0,.11A6.34,6.34,0,0,1,10.93,23Z"/><path class="cls-1" d="M28.73,24.21a6.08,6.08,0,0,1,6-3.44l.23,0H35l.2,0a4.75,4.75,0,0,1,1,.24c0,.17-.07.32-.11.45a6.34,6.34,0,0,1,2.44,1.63c0-.11,0-.25.08-.42a6.19,6.19,0,0,1,1.42,3.7,6.07,6.07,0,0,1-.29,2.17l-.06.19a5.31,5.31,0,0,1-.52,1,5.22,5.22,0,0,1-.95,1.05,5.87,5.87,0,0,0,1.47-3.9,5.23,5.23,0,0,0-5.36-5.31,5.5,5.5,0,0,0-2.76,10.25c-.16-.07-.31-.16-.47-.25A6,6,0,0,1,28.73,24.21Z"/><path class="cls-1" d="M9.8,22a5.91,5.91,0,0,1,2,8.11,5.51,5.51,0,0,1-1.27,1.4.94.94,0,0,1-.1-.1,5.53,5.53,0,0,0,1.36-6.34l.4-.17a6.28,6.28,0,0,0-4-3.54.61.61,0,0,1,0-.11A5.7,5.7,0,0,1,9.8,22Z"/><path class="cls-1" d="M20.25,9.4a3.5,3.5,0,0,1-3.5-3.5,3.42,3.42,0,0,1,1-2.41A3.5,3.5,0,0,0,21.82,9a3.32,3.32,0,0,0,1.06-.74A3.49,3.49,0,0,1,20.25,9.4Z"/><path class="cls-1" d="M38.24,30.88s0,0-.05,0Z"/><path class="cls-1" d="M9,32.31a4.18,4.18,0,0,1-.82.28.12.12,0,0,1-.1,0,.08.08,0,0,1-.08,0l-.25,0a5.74,5.74,0,0,0,1-.29,5.2,5.2,0,0,0,.92-.47,6,6,0,0,0,.76-.56l0,0A5.62,5.62,0,0,1,9,32.31Z"/><path class="cls-1" d="M37.23,21.5a4.94,4.94,0,0,0-1-.43A7.1,7.1,0,0,0,36.41,19a7.89,7.89,0,0,0-1.32-3.58,12.06,12.06,0,0,0-5.78-4.77,13.53,13.53,0,0,0-3.78-1,7.79,7.79,0,0,1-3,1.54,7.63,7.63,0,0,1-2.25.24h0A5.42,5.42,0,0,0,24,9.93a2.09,2.09,0,0,0,.22-.2A5.5,5.5,0,0,0,20.58.26,9.86,9.86,0,0,1,24.72,1c8,3.16,11.21,8.06,11.21,8.06a19.53,19.53,0,0,1,2.74,13.62A5.14,5.14,0,0,0,37.23,21.5Z"/><path class="cls-1" d="M1.53,29.61l-.06-.1Z"/><path class="cls-1" d="M22.63,10.78A5.5,5.5,0,0,1,15.37,8a5.25,5.25,0,0,1-.46-2,.17.17,0,0,1,0-.1.28.28,0,0,1,0-.09V5.68a1.85,1.85,0,0,1,0-.23.62.62,0,0,1,0-.13A2.09,2.09,0,0,1,15,5a.58.58,0,0,1,0-.19,1.42,1.42,0,0,1,0-.2.29.29,0,0,1,0-.09,1.14,1.14,0,0,1,.06-.25h0a4.57,4.57,0,0,1,.25-.69.61.61,0,0,1,.05-.12s0,0,0,0l.09-.18a5.43,5.43,0,0,1,.91-1.28l.06-.05A5.36,5.36,0,0,1,18.31.76a3.66,3.66,0,0,1,.43-.15A5.4,5.4,0,0,1,20.25.4,5.5,5.5,0,0,1,24.2,9.73a2.09,2.09,0,0,1-.22.2A5.51,5.51,0,0,1,22.63,10.78ZM16.75,5.9a3.5,3.5,0,0,0,6.13,2.31L23,8.13a3.49,3.49,0,0,0-4-5.57,3.34,3.34,0,0,0-1.12.79.6.6,0,0,0-.11.12s0,0,0,0A3.42,3.42,0,0,0,16.75,5.9Z"/><path class="cls-1" d="M15.42,3.42a.61.61,0,0,0-.05.12A.61.61,0,0,1,15.42,3.42Z"/><path class="cls-1" d="M34.72,20.77a6.08,6.08,0,0,0-6,3.44,6,6,0,0,0,2.42,7.42c.16.09.31.18.47.25a5.38,5.38,0,0,0,2.76.75,5.13,5.13,0,0,0,3.81-1.71s0,0,.05,0l0,0a5.22,5.22,0,0,0,.95-1.05,5.31,5.31,0,0,0,.52-1,8.88,8.88,0,0,1-.83,1.86,10.59,10.59,0,0,1-2.14,2.46,23.64,23.64,0,0,1-14.83,4.63,21.85,21.85,0,0,1-11.18-2.85,20.48,20.48,0,0,1-3-2.21.69.69,0,0,0,.24,0,.08.08,0,0,0,.08,0l.1,0a5.63,5.63,0,0,0,2.36-1.1,10.44,10.44,0,0,0,2.09,1.57,11,11,0,0,0,4.55,1.32A12.24,12.24,0,0,0,24.8,32a14.05,14.05,0,0,0,3.32-3.18A6.59,6.59,0,0,1,29,23.2,6.34,6.34,0,0,1,34.72,20.77Z"/><path class="cls-1" d="M15.37,3.54a4.57,4.57,0,0,0-.25.69h0a1.83,1.83,0,0,0-.06.25.29.29,0,0,0,0,.09,1.18,1.18,0,0,0,0,.2s0,.06,0,.1A.28.28,0,0,0,15,5a2.09,2.09,0,0,0,0,.34.53.53,0,0,0,0,.13,1.69,1.69,0,0,0,0,.23v.13a.28.28,0,0,0,0,.09.17.17,0,0,0,0,.1v.07l-.15,0a1.48,1.48,0,0,1,0-.21,5.37,5.37,0,0,1,.7-2.67h.07l-.09.18s0,0,0,0A.61.61,0,0,0,15.37,3.54Z"/><path class="cls-1" d="M15,4.89s0-.07,0-.1A.58.58,0,0,0,15,5,.28.28,0,0,1,15,4.89Z"/><path class="cls-1" d="M7.72,32.68a5.4,5.4,0,0,1-4.47-1.15,4,4,0,0,0,.34.23,6.09,6.09,0,0,0,4.12.91Z"/><path class="cls-1" d="M14.92,5.32a.62.62,0,0,0,0,.13A.53.53,0,0,1,14.92,5.32Z"/><path class="cls-1" d="M16.49,1.89A5.46,5.46,0,0,1,20.58.26a4.41,4.41,0,0,0-.49,0,7.81,7.81,0,0,0-1.35.3,3.66,3.66,0,0,0-.43.15A5.36,5.36,0,0,0,16.49,1.89Z"/><path class="cls-2" d="M24.82,20.48a4.31,4.31,0,1,1-4.3-4.3A4.31,4.31,0,0,1,24.82,20.48Z"/></g></g></svg>